PathFileType	4	(X/Y/Z)	Patient4_TMGait_0pt7_02_left_42.trc.trc
DataRate	CameraRate	NumFrames	NumMarkers	Units	OrigDataRate	OrigDataStartFrame	OrigNumFrames
84.848484848485	84.848484848485	4	33	mm	84.848484848485	1	       141
Frame#	Time	Sacral			L.Shoulder			Chest			R.Shoulder			Neck			R.ASIS			L.ASIS			R.Thigh.Superior			R.Thigh.Lateral			R.Thigh.Inferior			R.Patella			L.Thigh.Superior			L.Thigh.Lateral			L.Thigh.Inferior			L.Patella			L.Shank.Superior			L.Shank.Lateral			L.Shank.Inferior			R.Shank.Superior			R.Shank.Lateral			R.Shank.Inferior			R.Heel			R.Midfoot.Superior			R.Midfoot.Lateral			R.Toe			L.Heel			L.Midfoot.Lateral			L.Midfoot.Superior			L.Toe			L.Elbow			L.Wrist			R.Elbow			R.Wrist			
		X1	Y1	Z1	X2	Y2	Z2	X3	Y3	Z3	X4	Y4	Z4	X5	Y5	Z5	X6	Y6	Z6	X7	Y7	Z7	X8	Y8	Z8	X9	Y9	Z9	X10	Y10	Z10	X11	Y11	Z11	X12	Y12	Z12	X13	Y13	Z13	X14	Y14	Z14	X15	Y15	Z15	X16	Y16	Z16	X17	Y17	Z17	X18	Y18	Z18	X19	Y19	Z19	X20	Y20	Z20	X21	Y21	Z21	X22	Y22	Z22	X23	Y23	Z23	X24	Y24	Z24	X25	Y25	Z25	X26	Y26	Z26	X27	Y27	Z27	X28	Y28	Z28	X29	Y29	Z29	X30	Y30	Z30	X31	Y31	Z31	X32	Y32	Z32	X33	Y33	Z33	

1	48.110000000000	717.666186715882	1013.418973843863	540.908650854858	895.244925449603	1430.629215543110	337.270047986049	1012.848847055300	1359.528154647522	488.816792801465	949.888078736425	1442.374960745272	667.657807934320	913.324375130702	1493.526925478802	489.967937132274	950.752041763404	944.411630700809	642.337419928096	917.380195874934	959.442108196531	370.902857538037	988.584886833755	742.745553950000	615.098250589730	905.636662324595	633.690644666407	669.942977015254	981.520848985766	582.741622259058	587.934092281087	981.322865404324	492.891910683448	590.628351085790	1006.203003220246	787.679746721132	399.985698075523	966.997999353317	661.870421295679	317.309656425020	1076.163705276075	601.254649841989	376.189629543029	1090.737701625341	508.787472308469	365.053614055997	1017.912031954759	443.747359895482	358.290787102247	872.376704140729	416.444957125563	310.786551629896	846.520596881532	289.222588219323	363.623687579328	949.915504842741	405.872102007889	595.244757172494	877.095822335593	302.023633681730	654.074654901466	915.991581790270	208.167651309252	586.607663342369	777.241136098395	46.027344156660	553.215411429829	950.659781853058	97.695333602515	588.542820427572	861.560417744328	37.562521208033	625.102331511768	1069.810369440091	39.898587696997	612.820211672640	652.433206610203	252.778687201576	401.544093731510	700.180394066784	193.685362785878	323.815708876463	805.078400511128	184.437509153875	344.524395220700	861.851414910304	58.928527826518	322.568756364178	849.628216344188	1076.942268216811	236.235378298949	976.195393514076	845.628647017090	238.879034665103	942.004039811492	1096.967034586127	802.547366641911	1077.375555433606	872.650011895198	781.170583930573	
2	48.121785714286	716.429230750308	1014.229336641666	541.554075582350	894.237293808551	1430.867702001717	337.567923684014	1012.132204872028	1359.687194187239	488.798026929084	949.994548598354	1442.844070355762	667.842694717873	912.897167706833	1493.961079974044	490.264844577761	949.426050808740	944.968442515227	643.079093821269	916.077131545786	959.848400512652	371.504020118812	984.485228228475	742.519903323310	615.218552353930	900.015142550352	634.303745530697	670.849029193317	974.833875112702	582.222782665061	589.020272839347	973.295887433952	492.891304399745	591.785444217788	1006.783515934380	791.904452926831	400.704804265504	971.136819018995	665.920888575266	316.638341249106	1081.135475789400	607.609366437596	375.893819762162	1098.285419275578	515.873798039572	364.258849232054	1027.919647815627	448.684615140396	357.611307522683	883.591850548955	415.774820054561	310.592723641138	863.311859831882	287.626403703694	363.385852582376	941.870550706714	406.064904861452	596.251845422154	868.541436556227	302.408733773324	654.846397134360	907.646597762927	208.494074197731	587.300773948328	768.560575488070	46.377630031457	553.350689604695	942.051550203245	97.676587473468	588.741595328350	852.881173871341	37.681775205854	625.231839503809	1061.106767779568	39.787182408935	612.931858897173	671.422945660880	242.612287577457	402.127202296219	721.301109319655	186.365421749461	323.788651347191	826.418495907153	181.929400265971	343.926946897708	888.596929232339	59.591310654457	320.874424614403	841.120256067712	1077.762038417766	238.991857040878	949.304345844816	839.975905521590	240.927973307758	953.070277762174	1098.233492083008	803.201881529072	1100.576160581788	883.878295931564	778.762163502715	
3	48.133571428571	715.220553327640	1015.011428277954	542.157453119182	893.258739154540	1431.101744591130	337.847443484159	1011.426007160922	1359.829440327029	488.769864024784	950.089652617623	1443.281494576612	668.013089006636	912.477041325422	1494.374929839639	490.547214763461	948.106504557617	945.511086039886	643.791150131487	914.793548014194	960.212653607450	372.081108004467	980.401832814143	742.283863225595	615.351730636331	894.410604633404	634.918474704622	671.744111697091	968.173107108499	581.707268815452	590.108652748113	965.303858659501	492.904694547098	592.947645550817	1007.298320217131	795.997490392469	401.409720529892	975.136220957448	669.879208654057	315.963699339223	1085.923179524015	613.812700839599	375.582275517903	1105.592906295171	522.820453900091	363.444703962812	1037.710185655279	453.509619376266	356.906636082146	894.627525076600	414.955231588314	310.399785015047	879.966833710226	285.923818307304	363.118926011193	933.872600178546	406.278361232546	597.249125108410	860.047407788760	302.794400968150	655.610058276022	899.370327112078	208.826054760796	587.996469598762	759.979849678259	46.732186865330	553.492324096971	933.543783478314	97.659067762892	588.941878599308	844.302448336345	37.801259847508	625.371094288187	1052.499874830433	39.674751084693	613.041219253250	690.354042091017	232.341491197905	402.694020249687	742.328888830560	178.941944711094	323.742444396529	847.632987771483	179.318644315988	343.311645646583	915.198016771100	60.182489933805	319.149648025248	832.666250384355	1078.643030997193	241.591695250389	922.898376728447	834.741127345617	243.010538228639	963.966255760074	1099.523383818684	803.823869397570	1123.391728125195	895.188667687527	776.278677087365	
4	48.145357142857	714.061810414561	1015.734854822067	542.667857522940	892.334406055568	1431.318634540666	338.085098606869	1010.738340753330	1359.927078923701	488.715097634868	950.161166985250	1443.645530275557	668.147202117835	912.068226088550	1494.737772908874	490.796101039467	946.788159028996	946.013673017697	644.432372377347	913.552658998616	960.481686960867	372.600116741402	976.319725191866	742.012223149589	615.514623524806	888.790792701598	635.528827246471	672.611487262500	961.515553244871	581.187533506427	591.198026285344	957.331509277371	492.930838994551	594.113539533932	1007.667451594406	799.798938348758	402.080456585908	978.825972922549	673.603698317774	315.291315454544	1090.314352066285	619.662302117100	375.248304867145	1112.396158362536	529.455979981034	362.623678903819	1047.071371404444	458.092777915121	356.179135712080	905.404872679491	413.785157306766	310.175293534084	896.488279895967	283.993008893423	362.781500905392	925.902980014708	406.517921432929	598.222086389672	851.604062139009	303.177424599536	656.352818733839	891.156631184677	209.162571083294	588.692627129846	751.516236946321	47.085857614005	553.642869116768	925.156587274739	97.645896865435	589.147138534105	835.841407688953	37.917588654582	625.523835655364	1044.005779878856	39.563058927854	613.146872982986	709.401149622167	221.774721918415	403.155318725396	763.433731423046	171.279812399333	323.609666980550	868.803003291957	176.520911375128	342.645005865362	941.748816812246	60.738647481887	317.393057178076	824.254195749295	1079.673581043616	243.894796215861	897.318674127901	830.332419771306	245.182871428857	974.588899971502	1100.878722311826	804.360446691308	1145.516275230422	906.802704714922	773.590018761393	
